<?xml version="1.0" encoding="UTF-8" standalone="no"?>
<svg width="200px" height="200px" viewBox="0 0 200 200" version="1.1" xmlns="http://www.w3.org/2000/svg" xmlns:xlink="http://www.w3.org/1999/xlink" xmlns:sketch="http://www.bohemiancoding.com/sketch/ns">
    <!-- Generator: Sketch 3.3 (11970) - http://www.bohemiancoding.com/sketch -->
    <title>icon-unsubscribe</title>
    <desc>Created with Sketch.</desc>
    <defs></defs>
    <g id="Page-1" stroke="none" stroke-width="1" fill="none" fill-rule="evenodd" sketch:type="MSPage">
        <g id="icon-unsubscribe" sketch:type="MSLayerGroup" fill="#000000">
            <path d="M133.333333,199.995833 C96.575,199.995833 66.6666667,170.0875 66.6666667,133.329167 C66.6666667,96.5708333 96.575,66.6625 133.333333,66.6625 C170.091667,66.6625 200,96.5708333 200,133.329167 C200,170.0875 170.091667,199.995833 133.333333,199.995833 L133.333333,199.995833 Z M133.333333,74.9958333 C101.166667,74.9958333 75,101.1625 75,133.329167 C75,165.495833 101.166667,191.6625 133.333333,191.6625 C165.5,191.6625 191.666667,165.495833 191.666667,133.329167 C191.666667,101.1625 165.5,74.9958333 133.333333,74.9958333 L133.333333,74.9958333 Z" id="Fill-1" sketch:type="MSShapeGroup"></path>
            <path d="M66.6666667,137.5 L4.16666667,137.5 C1.8625,137.5 0,135.6375 0,133.333333 L0,4.16666667 C0,1.8625 1.8625,0 4.16666667,0 L71.8166667,0 C72.925,0 73.9833333,0.4375 74.7625,1.22083333 L102.945833,29.3958333 C103.725,30.175 104.166667,31.2333333 104.166667,32.3416667 L104.166667,79.1666667 C104.166667,81.4708333 102.304167,83.3333333 100,83.3333333 C97.6958333,83.3333333 95.8333333,81.4708333 95.8333333,79.1666667 L95.8333333,34.0666667 L70.0916667,8.33333333 L8.33333333,8.33333333 L8.33333333,129.166667 L66.6666667,129.166667 C68.9708333,129.166667 70.8333333,131.029167 70.8333333,133.333333 C70.8333333,135.6375 68.9708333,137.5 66.6666667,137.5" id="Fill-2" sketch:type="MSShapeGroup"></path>
            <path d="M100,41.6666667 L66.6666667,41.6666667 C64.3625,41.6666667 62.5,39.8041667 62.5,37.5 L62.5,4.16666667 C62.5,1.8625 64.3625,0 66.6666667,0 C68.9708333,0 70.8333333,1.8625 70.8333333,4.16666667 L70.8333333,33.3333333 L100,33.3333333 C102.304167,33.3333333 104.166667,35.1958333 104.166667,37.5 C104.166667,39.8041667 102.304167,41.6666667 100,41.6666667" id="Fill-3" sketch:type="MSShapeGroup"></path>
            <path d="M133.333333,171.7875 C132.25,171.7875 131.1625,171.375 130.375,170.583333 C129.620833,169.833333 129.166667,168.75 129.166667,167.620833 C129.166667,166.541667 129.620833,165.458333 130.375,164.708333 C131.958333,163.120833 134.75,163.166667 136.291667,164.708333 C137.041667,165.458333 137.5,166.541667 137.5,167.620833 C137.5,168.75 137.041667,169.833333 136.291667,170.583333 C135.495833,171.375 134.416667,171.7875 133.333333,171.7875" id="Fill-4" sketch:type="MSShapeGroup"></path>
            <path d="M133.333333,154.895833 C131.029167,154.895833 129.166667,153.029167 129.166667,150.729167 L129.166667,99.9958333 C129.166667,97.6916667 131.029167,95.8291667 133.333333,95.8291667 C135.6375,95.8291667 137.5,97.6916667 137.5,99.9958333 L137.5,150.729167 C137.5,153.029167 135.6375,154.895833 133.333333,154.895833" id="Fill-5" sketch:type="MSShapeGroup"></path>
        </g>
    </g>
</svg>