<?xml version="1.0" encoding="utf-8"?>
<!-- Generator: Adobe Illustrator 16.0.0, SVG Export Plug-In . SVG Version: 6.00 Build 0)  -->
<!DOCTYPE svg PUBLIC "-//W3C//DTD SVG 1.1//EN" "http://www.w3.org/Graphics/SVG/1.1/DTD/svg11.dtd">
<svg version="1.1" id="Layer_1" xmlns="http://www.w3.org/2000/svg" xmlns:xlink="http://www.w3.org/1999/xlink" x="0px" y="0px"
	 width="198px" height="161px" viewBox="0 0 198 161" enable-background="new 0 0 198 161" xml:space="preserve">
<path fill="#FFFFFF" d="M81.25,96.725c-3.656,0.912-7.616,1.827-14.014,1.827c-12.643,0-27.267-6.093-27.267-23.309
	c0-15.839,11.579-23.761,27.113-23.761c4.875,0,9.444,1.066,14.014,2.285l-1.066,9.901c-4.11-2.134-8.073-3.198-12.338-3.198
	c-8.987,0-14.775,6.244-14.775,14.772c0,8.988,6.549,14.32,15.842,14.32c4.113,0,8.377-1.067,11.881-2.285L81.25,96.725"/>
<path fill="#FFFFFF" d="M130.756,96.57c-8.075,1.981-14.014,2.134-18.278,2.134c-12.646,0-27.267-6.095-27.267-23.306
	c0-17.061,12.491-23.764,30.008-23.764c3.046,0,9.746,0.305,14.316,1.983l-1.063,9.9c-3.962-2.285-8.531-2.895-11.578-2.895
	c-10.207,0-18.736,4.112-18.736,14.775c0,8.985,6.549,14.316,15.842,14.316c1.675,0,3.349-0.302,4.415-0.761v-8.986h-7.461v-8.53
	h19.648V96.57"/>
<path fill="#FFFFFF" d="M181.785,80.576c0,12.492-8.683,17.979-21.325,17.979c-12.646,0-21.325-5.638-21.325-17.979v-28.18h12.947
	v26.2c0,5.942,1.675,11.12,8.378,11.12c6.699,0,8.377-5.026,8.377-11.12v-26.2h12.948V80.576"/>
<path fill="#FFFFFF" d="M197.017,106.318c0,7.008-1.522,13.559-4.875,19.498c-16.604,29.854-71.135,32.293-120.489,4.724
	c-49.2-27.572-74.028-74.792-57.425-104.496C30.68-3.81,83.688-3.963,132.735,21.932c2.285,1.221,2.285,1.221,0.152-0.151
	C81.858-8.533,25.042-7.01,6.153,25.131c-18.887,32.14,7.16,82.864,58.188,113.176c51.029,30.312,107.845,28.791,126.735-3.352
	C196.103,126.427,197.931,116.678,197.017,106.318"/>
</svg>
