<?xml version="1.0" encoding="utf-8"?>
<!-- Generator: Adobe Illustrator 16.0.0, SVG Export Plug-In . SVG Version: 6.00 Build 0)  -->
<!DOCTYPE svg PUBLIC "-//W3C//DTD SVG 1.1//EN" "http://www.w3.org/Graphics/SVG/1.1/DTD/svg11.dtd">
<svg version="1.1" id="Layer_1" xmlns="http://www.w3.org/2000/svg" xmlns:xlink="http://www.w3.org/1999/xlink" x="0px" y="0px"
	 width="514px" height="161px" viewBox="0 0 514 161" enable-background="new 0 0 514 161" xml:space="preserve">
<path fill="#0BAB47" d="M81.25,96.724c-3.656,0.913-7.616,1.828-14.014,1.828c-12.643,0-27.267-6.093-27.267-23.309
	c0-15.839,11.579-23.761,27.113-23.761c4.875,0,9.444,1.066,14.014,2.285l-1.066,9.901c-4.11-2.134-8.073-3.198-12.338-3.198
	c-8.987,0-14.775,6.244-14.775,14.772c0,8.988,6.549,14.32,15.842,14.32c4.113,0,8.377-1.067,11.881-2.285L81.25,96.724"/>
<path fill="#0BAB47" d="M130.755,96.57c-8.076,1.983-14.014,2.134-18.278,2.134c-12.646,0-27.267-6.094-27.267-23.306
	c0-17.061,12.491-23.764,30.008-23.764c3.046,0,9.746,0.305,14.316,1.983l-1.063,9.9c-3.962-2.285-8.532-2.895-11.578-2.895
	c-10.207,0-18.736,4.112-18.736,14.775c0,8.985,6.549,14.316,15.842,14.316c1.675,0,3.348-0.302,4.415-0.761v-8.986h-7.461v-8.53
	h19.648V96.57"/>
<path fill="#0BAB47" d="M181.784,80.576c0,12.492-8.683,17.978-21.325,17.978c-12.646,0-21.325-5.637-21.325-17.978v-28.18h12.947
	v26.2c0,5.942,1.675,11.12,8.378,11.12c6.699,0,8.377-5.026,8.377-11.12v-26.2h12.948V80.576"/>
<path fill="#0BAB47" d="M197.015,106.319c0,7.007-1.522,13.558-4.874,19.497c-16.604,29.856-71.135,32.293-120.489,4.724
	c-49.2-27.572-74.028-74.792-57.425-104.496C30.679-3.81,83.687-3.963,132.735,21.932c2.285,1.221,2.285,1.221,0.152-0.151
	C81.858-8.533,25.042-7.01,6.153,25.131c-18.887,32.14,7.16,82.864,58.188,113.176s107.844,28.79,126.734-3.352
	C196.101,126.427,197.929,116.678,197.015,106.319"/>
<path fill="#6D6E71" d="M211.638,95.657v-8.073c2.741,1.523,4.874,2.437,7.006,2.437c2.285,0,4.113-1.066,4.113-3.807v-0.153
	c0-1.979-0.606-3.503-4.265-7.771c-5.331-5.938-7.465-8.834-7.465-14.166v-0.151c0-7.159,4.57-11.579,10.817-11.579
	c3.048,0,4.876,0.46,6.854,1.372v8.072c-2.439-1.368-3.807-1.979-5.94-1.979c-2.131,0-3.96,1.371-3.96,3.808v0.152
	c0,2.133,0.606,2.895,4.266,7.159c6.092,7.009,7.463,9.749,7.463,14.776v0.151c0,7.01-4.874,11.579-10.966,11.579
	C216.512,97.637,213.923,96.876,211.638,95.657"/>
<polygon fill="#6D6E71" points="233.268,52.854 250.175,52.854 250.175,60.317 241.036,60.317 241.036,71.285 249.109,71.285 
	249.109,78.596 241.036,78.596 241.036,89.869 250.48,89.869 250.48,97.181 233.268,97.181 "/>
<polygon fill="#6D6E71" points="253.527,52.854 270.435,52.854 270.435,60.317 261.295,60.317 261.295,71.285 269.371,71.285 
	269.371,78.596 261.295,78.596 261.295,89.869 270.739,89.869 270.739,97.181 253.527,97.181 "/>
<rect x="287.191" y="52.854" fill="#6D6E71" width="7.77" height="44.326"/>
<polygon fill="#6D6E71" points="303.643,60.317 298.312,60.317 298.312,52.854 316.894,52.854 316.894,60.317 311.41,60.317 
	311.41,97.332 303.643,97.332 "/>
<polygon fill="#6D6E71" points="336.85,60.317 331.364,60.317 331.364,52.854 350.101,52.854 350.101,60.317 344.616,60.317 
	344.616,97.332 336.85,97.332 "/>
<polygon fill="#6D6E71" points="353.299,52.854 360.915,52.854 360.915,71.285 367.77,71.285 367.77,52.854 375.386,52.854 
	375.386,97.332 367.77,97.332 367.77,78.596 360.915,78.596 360.915,97.332 353.299,97.332 "/>
<path fill="#6D6E71" d="M378.89,52.854h7.922c7.92,0,13.708,4.11,13.708,14.166v0.608c0,5.791-2.285,9.444-5.18,11.729l5.941,17.974
	h-8.227l-5.026-15.384h-1.523v15.384h-7.768L378.89,52.854z M386.962,74.788c3.353,0,5.791-1.979,5.791-7.159v-0.457
	c0-5.636-2.589-7.006-6.092-7.006h-0.156v14.622H386.962z"/>
<path fill="#6D6E71" d="M403.414,76.16v-2.285c0-14.625,4.723-21.63,11.728-21.63c7.009,0,11.728,7.006,11.728,21.63v2.285
	c0,14.623-4.72,21.63-11.728,21.63C408.137,97.941,403.414,90.936,403.414,76.16 M419.104,76.16v-2.285
	c0-11.424-1.523-14.625-3.962-14.625c-2.286,0-3.961,3.201-3.961,14.625v2.285c0,11.424,1.523,14.623,3.961,14.623
	C417.58,90.782,419.104,87.584,419.104,76.16"/>
<path fill="#6D6E71" d="M429.612,84.385v-31.53h7.616v32.14c0,3.96,1.372,5.637,3.352,5.637s3.352-1.523,3.352-5.637v-32.14h7.616
	v31.378c0,9.291-4.722,13.558-10.968,13.558C434.335,97.79,429.612,93.677,429.612,84.385"/>
<path fill="#6D6E71" d="M454.139,75.855v-1.523c0-14.319,6.092-21.782,14.774-21.782c2.285,0,4.265,0.457,5.938,1.219v8.072
	c-1.828-1.066-3.653-1.828-5.637-1.828c-4.414,0-7.156,4.418-7.156,14.014v2.134c0,11.577,3.349,14.316,6.551,14.316
	c0.304,0,0.304,0,0.761,0v-11.27h-3.809v-6.854h10.814v23.611c-2.74,1.219-5.026,1.828-8.072,1.828
	C460.535,97.637,454.139,91.239,454.139,75.855"/>
<polygon fill="#6D6E71" points="479.576,52.854 487.344,52.854 487.344,71.285 494.047,71.285 494.047,52.854 501.814,52.854 
	501.814,97.332 494.047,97.332 494.047,78.596 487.344,78.596 487.344,97.332 479.576,97.332 "/>
<rect x="505.317" y="88.497" fill="#6D6E71" width="8.683" height="8.835"/>
</svg>
