<?xml version="1.0" encoding="utf-8"?>
<!-- Generator: Adobe Illustrator 16.0.0, SVG Export Plug-In . SVG Version: 6.00 Build 0)  -->
<!DOCTYPE svg PUBLIC "-//W3C//DTD SVG 1.1//EN" "http://www.w3.org/Graphics/SVG/1.1/DTD/svg11.dtd">
<svg version="1.1" id="cgu-logo-header" xmlns="http://www.w3.org/2000/svg" xmlns:xlink="http://www.w3.org/1999/xlink" x="0px"
	 y="0px" width="347.1px" height="108.1px" viewBox="0 0 347.1 108.1" enable-background="new 0 0 347.1 108.1"
	 xml:space="preserve">
<path fill="#FFFFFF" d="M58.2,65c-2.4,0.6-5,1.2-9.2,1.2c-8.3,0-17.9-4-17.9-15.301c0-10.399,7.601-15.6,17.8-15.6
	c3.2,0,6.2,0.7,9.2,1.5l-0.7,6.5c-2.699-1.4-5.3-2.1-8.1-2.1c-5.9,0-9.7,4.1-9.7,9.699c0,5.9,4.3,9.4,10.4,9.4
	c2.7,0,5.5-0.7,7.8-1.5L58.2,65"/>
<path fill="#FFFFFF" d="M90.7,64.9c-5.301,1.301-9.2,1.4-12,1.4c-8.301,0-17.9-4-17.9-15.3C60.8,39.8,69,35.4,80.5,35.4
	c2,0,6.399,0.2,9.399,1.301L89.2,43.2C86.6,41.7,83.6,41.3,81.6,41.3c-6.7,0-12.3,2.7-12.3,9.7c0,5.899,4.3,9.399,10.4,9.399
	c1.1,0,2.199-0.199,2.899-0.5V54H77.7V48.4H90.6v16.5"/>
<path fill="#FFFFFF" d="M124.2,54.4c0,8.2-5.7,11.801-14,11.801c-8.301,0-14-3.7-14-11.801V35.9h8.5v17.2c0,3.9,1.1,7.3,5.5,7.3
	c4.399,0,5.5-3.3,5.5-7.3V35.9h8.5V54.4"/>
<path fill="#FFFFFF" d="M134.2,71.3c0,4.6-1,8.9-3.2,12.8C120.1,103.7,84.3,105.3,51.9,87.2C19.6,69.1,3.3,38.1,14.2,18.6
	C25-1,59.8-1.1,92,15.9c1.5,0.801,1.5,0.801,0.1-0.1C58.6-4.1,21.3-3.1,8.9,18C-3.5,39.1,13.6,72.4,47.1,92.3s70.8,18.9,83.2-2.2
	C133.6,84.5,134.8,78.1,134.2,71.3"/>
<path fill="#FFFFFF" d="M143.8,64.3V59c1.8,1,3.2,1.6,4.6,1.6c1.5,0,2.7-0.7,2.7-2.5V58c0-1.3-0.399-2.3-2.8-5.101
	c-3.5-3.899-4.9-5.8-4.9-9.3v-0.1c0-4.7,3-7.601,7.101-7.601c2,0,3.2,0.301,4.5,0.9v5.3c-1.601-0.899-2.5-1.3-3.9-1.3
	c-1.399,0-2.6,0.9-2.6,2.5v0.1c0,1.4,0.399,1.9,2.8,4.7c4,4.601,4.9,6.4,4.9,9.7v0.1c0,4.601-3.2,7.601-7.2,7.601
	C147,65.6,145.3,65.1,143.8,64.3"/>
<polygon fill="#FFFFFF" points="158,36.2 169.1,36.2 169.1,41.1 163.1,41.1 163.1,48.3 168.4,48.3 168.4,53.1 163.1,53.1 
	163.1,60.5 169.3,60.5 169.3,65.3 158,65.3 "/>
<polygon fill="#FFFFFF" points="171.3,36.2 182.4,36.2 182.4,41.1 176.4,41.1 176.4,48.3 181.7,48.3 181.7,53.1 176.4,53.1 
	176.4,60.5 182.6,60.5 182.6,65.3 171.3,65.3 "/>
<rect x="193.4" y="36.2" fill="#FFFFFF" width="5.101" height="29.1"/>
<polygon fill="#FFFFFF" points="204.2,41.1 200.7,41.1 200.7,36.2 212.9,36.2 212.9,41.1 209.3,41.1 209.3,65.4 204.2,65.4 "/>
<polygon fill="#FFFFFF" points="226,41.1 222.4,41.1 222.4,36.2 234.7,36.2 234.7,41.1 231.1,41.1 231.1,65.4 226,65.4 "/>
<polygon fill="#FFFFFF" points="236.8,36.2 241.8,36.2 241.8,48.3 246.3,48.3 246.3,36.2 251.3,36.2 251.3,65.4 246.3,65.4 
	246.3,53.1 241.8,53.1 241.8,65.4 236.8,65.4 "/>
<path fill="#FFFFFF" d="M253.6,36.2h5.2c5.2,0,9,2.699,9,9.3V45.9c0,3.801-1.5,6.2-3.4,7.7l3.9,11.8h-5.4l-3.3-10.1h-1v10.1h-5.1
	L253.6,36.2z M258.9,50.6c2.2,0,3.801-1.3,3.801-4.7v-0.3c0-3.7-1.7-4.6-4-4.6H258.6v9.6H258.9z"/>
<path fill="#FFFFFF" d="M269.7,51.5V50c0-9.601,3.1-14.2,7.699-14.2c4.601,0,7.7,4.6,7.7,14.2v1.5c0,9.6-3.1,14.2-7.7,14.2
	C272.8,65.8,269.7,61.2,269.7,51.5 M280,51.5V50c0-7.5-1-9.601-2.601-9.601c-1.5,0-2.6,2.101-2.6,9.601v1.5c0,7.5,1,9.6,2.6,9.6
	C279,61.1,280,59,280,51.5"/>
<path fill="#FFFFFF" d="M286.9,56.9V36.2h5v21.1c0,2.6,0.9,3.7,2.2,3.7s2.2-1,2.2-3.7V36.2h5v20.6c0,6.1-3.1,8.9-7.2,8.9
	C290,65.7,286.9,63,286.9,56.9"/>
<path fill="#FFFFFF" d="M303,51.3v-1c0-9.4,4-14.3,9.7-14.3c1.5,0,2.8,0.3,3.899,0.8v5.3c-1.2-0.7-2.399-1.2-3.7-1.2
	c-2.899,0-4.699,2.9-4.699,9.2v1.4c0,7.6,2.199,9.399,4.3,9.399c0.2,0,0.2,0,0.5,0V53.5h-2.5V49h7.1v15.5c-1.8,0.8-3.3,1.2-5.3,1.2
	C307.2,65.6,303,61.4,303,51.3"/>
<polygon fill="#FFFFFF" points="319.7,36.2 324.8,36.2 324.8,48.3 329.2,48.3 329.2,36.2 334.3,36.2 334.3,65.4 329.2,65.4 
	329.2,53.1 324.8,53.1 324.8,65.4 319.7,65.4 "/>
<rect x="336.6" y="59.6" fill="#FFFFFF" width="5.7" height="5.8"/>
</svg>
